<?xml version="1.0" encoding="utf-8"?>
<!-- Generator: Adobe Illustrator 16.0.0, SVG Export Plug-In . SVG Version: 6.00 Build 0)  -->
<!DOCTYPE svg PUBLIC "-//W3C//DTD SVG 1.1//EN" "http://www.w3.org/Graphics/SVG/1.1/DTD/svg11.dtd">
<svg version="1.1" id="Layer_1" xmlns="http://www.w3.org/2000/svg" xmlns:xlink="http://www.w3.org/1999/xlink" x="0px" y="0px"
	 width="40px" height="40px" viewBox="0 0 40 40" enable-background="new 0 0 40 40" xml:space="preserve">
<path fill="#010101" d="M32.005,20.005c-2.031,1.953-4.047,3.891-6.047,5.797c-4.391,4.188-8.765,8.375-13.155,12.578
	c-0.906,0.875-1.016,0.875-1.875-0.016c-0.781-0.797-1.563-1.594-2.344-2.406c-0.781-0.797-0.781-0.938,0.016-1.688
	c4.781-4.563,9.578-9.125,14.358-13.688c0.188-0.172,0.391-0.359,0.5-0.453c-0.891-0.968-1.656-1.812-2.5-2.655
	c-4.093-3.938-8.218-7.828-12.327-11.75C7.787,4.928,7.787,4.818,8.6,3.975C9.459,3.1,10.318,2.24,11.162,1.35
	c0.438-0.469,0.844-0.531,1.328-0.063c6.406,6.141,12.937,12.172,19.249,18.421C31.802,19.786,31.864,19.849,32.005,20.005z"/>
</svg>
