<?xml version="1.0" encoding="utf-8"?>
<!-- Generator: Adobe Illustrator 16.0.0, SVG Export Plug-In . SVG Version: 6.00 Build 0)  -->
<!DOCTYPE svg PUBLIC "-//W3C//DTD SVG 1.1//EN" "http://www.w3.org/Graphics/SVG/1.1/DTD/svg11.dtd">
<svg version="1.1" id="Layer_1" xmlns="http://www.w3.org/2000/svg" xmlns:xlink="http://www.w3.org/1999/xlink" x="0px" y="0px"
	 width="40px" height="40px" viewBox="0 0 40 40" enable-background="new 0 0 40 40" xml:space="preserve">
<path fill="#010101" d="M7.994,19.994c2.031-1.953,4.047-3.891,6.047-5.797c4.391-4.188,8.765-8.375,13.155-12.578
	c0.906-0.875,1.016-0.875,1.875,0.016c0.781,0.797,1.563,1.594,2.344,2.406c0.781,0.797,0.781,0.938-0.016,1.688
	c-4.781,4.563-9.578,9.125-14.358,13.688c-0.188,0.172-0.391,0.359-0.5,0.453c0.891,0.968,1.656,1.812,2.5,2.655
	c4.093,3.938,8.218,7.828,12.327,11.75c0.844,0.797,0.844,0.906,0.031,1.75c-0.859,0.875-1.719,1.734-2.563,2.625
	c-0.438,0.469-0.844,0.531-1.328,0.063C21.103,32.571,14.572,26.54,8.26,20.291C8.197,20.213,8.135,20.15,7.994,19.994z"/>
</svg>
