<?xml version="1.0" encoding="utf-8"?>
<!-- Generator: Adobe Illustrator 16.0.0, SVG Export Plug-In . SVG Version: 6.00 Build 0)  -->
<!DOCTYPE svg PUBLIC "-//W3C//DTD SVG 1.1//EN" "http://www.w3.org/Graphics/SVG/1.1/DTD/svg11.dtd">
<svg version="1.1" id="Layer_1" xmlns="http://www.w3.org/2000/svg" xmlns:xlink="http://www.w3.org/1999/xlink" x="0px" y="0px"
	 width="40px" height="40px" viewBox="0 0 40 40" enable-background="new 0 0 40 40" xml:space="preserve">
<path fill="#FFFFFF" d="M26.879,19.974c-1.76-1.758-3.453-3.387-5.082-5.081C18.02,11.114,14.24,7.336,10.462,3.492
	C9.485,2.515,9.68,1.277,10.853,1.017c0.456-0.065,1.107,0.13,1.434,0.456c3.648,3.583,7.231,7.231,10.88,10.879
	c2.084,2.085,4.169,4.169,6.254,6.319c1.042,1.042,1.042,1.499,0,2.541C23.816,26.88,18.148,32.548,12.546,38.15
	c-0.977,0.978-1.628,1.107-2.345,0.391c-0.651-0.716-0.521-1.368,0.456-2.345c5.212-5.213,10.423-10.489,15.636-15.701
	C26.423,20.365,26.618,20.17,26.879,19.974z"/>
</svg>
