<?xml version="1.0" encoding="utf-8"?>
<!-- Generator: Adobe Illustrator 16.0.0, SVG Export Plug-In . SVG Version: 6.00 Build 0)  -->
<!DOCTYPE svg PUBLIC "-//W3C//DTD SVG 1.1//EN" "http://www.w3.org/Graphics/SVG/1.1/DTD/svg11.dtd">
<svg version="1.1" id="Layer_1" xmlns="http://www.w3.org/2000/svg" xmlns:xlink="http://www.w3.org/1999/xlink" x="0px" y="0px"
	 width="40px" height="40px" viewBox="0 0 40 40" enable-background="new 0 0 40 40" xml:space="preserve">
<g>
	<path d="M21.137,20.026c1.759,1.759,3.452,3.387,5.081,5.082c3.777,3.777,7.557,7.557,11.336,11.399
		c0.977,0.978,0.781,2.216-0.393,2.476c-0.455,0.065-1.105-0.129-1.434-0.455c-3.646-3.584-7.23-7.231-10.879-10.879
		c-2.084-2.086-4.169-4.17-6.254-6.32c-1.042-1.042-1.042-1.498,0-2.54C24.199,13.12,29.866,7.452,35.468,1.85
		c0.979-0.978,1.629-1.107,2.346-0.391c0.652,0.716,0.521,1.368-0.455,2.345c-5.213,5.213-10.424,10.489-15.636,15.701
		C21.592,19.635,21.396,19.83,21.137,20.026z"/>
	<path d="M5.106,20.026c1.76,1.759,3.453,3.387,5.082,5.082c3.777,3.777,7.557,7.557,11.335,11.399
		c0.978,0.978,0.782,2.216-0.392,2.476c-0.455,0.065-1.106-0.129-1.434-0.455c-3.646-3.584-7.231-7.231-10.88-10.879
		c-2.084-2.086-4.169-4.17-6.254-6.32c-1.042-1.042-1.042-1.498,0-2.54C8.169,13.12,13.837,7.452,19.438,1.85
		c0.979-0.978,1.629-1.107,2.346-0.391c0.651,0.716,0.521,1.368-0.456,2.345C16.116,9.017,10.905,14.293,5.692,19.505
		C5.563,19.635,5.367,19.83,5.106,20.026z"/>
</g>
</svg>
