<?xml version="1.0" encoding="utf-8"?>
<!-- Generator: Adobe Illustrator 16.0.0, SVG Export Plug-In . SVG Version: 6.00 Build 0)  -->
<!DOCTYPE svg PUBLIC "-//W3C//DTD SVG 1.1//EN" "http://www.w3.org/Graphics/SVG/1.1/DTD/svg11.dtd">
<svg version="1.1" id="Layer_1" xmlns="http://www.w3.org/2000/svg" xmlns:xlink="http://www.w3.org/1999/xlink" x="0px" y="0px"
	 width="40px" height="40px" viewBox="0 0 40 40" enable-background="new 0 0 40 40" xml:space="preserve">
<g>
	<path d="M18.275,19.505C13.063,14.293,7.852,9.017,2.639,3.804C1.663,2.827,1.532,2.175,2.184,1.459
		C2.9,0.743,3.551,0.872,4.53,1.85c5.602,5.602,11.269,11.27,16.874,16.939c1.042,1.042,1.042,1.498,0,2.54
		c-2.086,2.149-4.17,4.233-6.254,6.319c-3.649,3.648-7.233,7.295-10.879,10.879c-0.33,0.326-0.979,0.521-1.435,0.455
		c-1.174-0.26-1.37-1.498-0.394-2.476c3.779-3.842,7.56-7.622,11.337-11.399c1.629-1.694,3.321-3.322,5.081-5.082
		C18.602,19.83,18.406,19.635,18.275,19.505z"/>
	<path d="M34.307,19.505C29.094,14.293,23.882,9.017,18.67,3.804c-0.977-0.977-1.107-1.629-0.456-2.345
		c0.718-0.716,1.367-0.587,2.347,0.391c5.601,5.602,11.269,11.27,16.875,16.939c1.041,1.042,1.041,1.498,0,2.54
		c-2.086,2.149-4.17,4.233-6.254,6.319c-3.649,3.648-7.234,7.295-10.88,10.879c-0.328,0.326-0.979,0.521-1.434,0.455
		c-1.174-0.26-1.37-1.498-0.393-2.476c3.778-3.842,7.559-7.622,11.336-11.399c1.629-1.694,3.321-3.322,5.082-5.082
		C34.631,19.83,34.436,19.635,34.307,19.505z"/>
</g>
</svg>
