<?xml version="1.0" encoding="utf-8"?>
<!-- Generator: Adobe Illustrator 16.0.0, SVG Export Plug-In . SVG Version: 6.00 Build 0)  -->
<!DOCTYPE svg PUBLIC "-//W3C//DTD SVG 1.1//EN" "http://www.w3.org/Graphics/SVG/1.1/DTD/svg11.dtd">
<svg version="1.1" id="Layer_1" xmlns="http://www.w3.org/2000/svg" xmlns:xlink="http://www.w3.org/1999/xlink" x="0px" y="0px"
	 width="40px" height="40px" viewBox="0 0 40 40" enable-background="new 0 0 40 40" xml:space="preserve">
<path fill="#000" d="M13.121,20.026c1.76,1.759,3.453,3.387,5.082,5.081c3.777,3.778,7.557,7.557,11.335,11.4
	c0.978,0.977,0.782,2.215-0.391,2.476c-0.456,0.065-1.107-0.13-1.434-0.456c-3.647-3.583-7.231-7.231-10.88-10.879
	c-2.084-2.086-4.169-4.17-6.254-6.32c-1.042-1.042-1.042-1.498,0-2.54C16.184,13.12,21.852,7.452,27.453,1.85
	c0.978-0.978,1.629-1.107,2.346-0.391c0.651,0.716,0.521,1.368-0.456,2.345C24.131,9.017,18.92,14.293,13.707,19.505
	C13.577,19.635,13.382,19.83,13.121,20.026z"/>
</svg>
