<?xml version="1.0" encoding="utf-8"?>
<!-- Generator: Adobe Illustrator 16.0.0, SVG Export Plug-In . SVG Version: 6.00 Build 0)  -->
<!DOCTYPE svg PUBLIC "-//W3C//DTD SVG 1.1//EN" "http://www.w3.org/Graphics/SVG/1.1/DTD/svg11.dtd">
<svg version="1.1" id="Layer_1" xmlns="http://www.w3.org/2000/svg" xmlns:xlink="http://www.w3.org/1999/xlink" x="0px" y="0px"
	 width="40px" height="40px" viewBox="0 0 40 40" enable-background="new 0 0 40 40" xml:space="preserve">
<path fill="#010101" d="M35.781-0.031c0.203,0,0.422,0,0.625,0c0.906,0.859,1.813,1.703,2.703,2.578c1.016,1,1,1.359,0,2.375
	c-4.781,4.797-9.547,9.594-14.328,14.359c-0.531,0.531-0.531,0.813,0,1.344c4.781,4.75,9.531,9.531,14.281,14.313
	c0.188,0.188,0.375,0.359,0.531,0.563c0.344,0.438,0.406,0.953,0,1.344c-1.031,1.063-2.109,2.063-3.188,3.094
	c-0.203,0-0.422,0-0.625,0c-0.313-0.266-0.641-0.531-0.922-0.828c-4.734-4.75-9.469-9.5-14.219-14.25
	c-0.203-0.203-0.406-0.391-0.641-0.609c-0.234,0.219-0.453,0.406-0.641,0.609c-4.734,4.75-9.469,9.5-14.219,14.25
	c-0.297,0.297-0.625,0.547-0.922,0.828c-0.203,0-0.422,0-0.625,0c-0.906-0.859-1.813-1.703-2.703-2.578c-1.016-1-1-1.359,0-2.375
	c4.781-4.797,9.547-9.594,14.328-14.359c0.531-0.531,0.531-0.813,0-1.344C10.438,14.531,5.688,9.75,0.938,4.969
	C0.75,4.781,0.563,4.609,0.406,4.406C0.063,3.969,0,3.453,0.406,3.063C1.453,2.016,2.531,1,3.594-0.031c0.203,0,0.422,0,0.625,0
	C4.531,0.234,4.859,0.5,5.141,0.797c4.734,4.75,9.469,9.5,14.219,14.25c0.203,0.203,0.406,0.391,0.641,0.609
	c0.234-0.219,0.453-0.406,0.641-0.609c4.734-4.75,9.469-9.5,14.219-14.25C35.141,0.5,35.469,0.234,35.781-0.031z"/>
</svg>
