<?xml version="1.0" encoding="utf-8"?>
<!-- Generator: Adobe Illustrator 24.3.0, SVG Export Plug-In . SVG Version: 6.00 Build 0)  -->
<svg version="1.1" id="eye-blind" xmlns="http://www.w3.org/2000/svg" xmlns:xlink="http://www.w3.org/1999/xlink" x="0px"
	 y="0px" viewBox="0 0 61.4 61.4" style="enable-background:new 0 0 61.4 61.4;" xml:space="preserve">
<style type="text/css">
	.st0{fill:#FFFFFF;}
</style>
<path class="st0" d="M61.4,51.8c-0.6,0.8-1.2,1.6-1.8,2.3c-1.2,1.5-1.6,1.5-3,0.4c-12.7-9.9-25.5-19.8-38.2-29.6
	c-5.6-4.4-11.3-8.8-16.9-13.1C0,10.6-0.1,10.1,1.1,8.6C3.7,5,3.6,5.7,6.4,7.9c3.2,2.5,6.4,5,9.6,7.5c0.5,0.4,0.9,0.5,1.6,0.2
	c14.9-7.4,32.8-1.4,40.3,13.5c0.6,1.2,0.6,2.3,0,3.4c-1.7,3.2-3.9,6-6.5,8.5c-0.3,0.2-0.5,0.5-0.8,0.7c0,0-0.1,0.1-0.1,0.3
	c3.1,2.4,6.2,4.8,9.2,7.2c0.6,0.5,1.2,1.1,1.8,1.7C61.4,51.2,61.4,51.5,61.4,51.8z M43.2,36.4c2.9-4.9,1.3-12.3-3.6-16.3
	c-5-4.2-12.7-4.2-17.4,0c2.3,1.8,4.6,3.5,6.8,5.3c0.1-0.1,0.3-0.1,0.4-0.2c-0.2-1.1-0.5-2.3-0.7-3.4c0.2,0,0.5-0.2,0.9-0.2
	c6.4-0.9,11.6,4.7,10.2,11c-0.1,0.4-0.1,1,0.1,1.2C41,34.7,42.1,35.5,43.2,36.4z"/>
<path class="st0" d="M7.2,24c3.2,2.5,6.4,4.9,9.5,7.4c0.4,0.3,0.6,0.9,0.7,1.4c1.2,6.7,6.1,11.2,12.9,11.7c0.1,0,0.2,0,0.2,0
	c3.5-1,5.3,1.9,7.9,3.6c-3.9,1.1-7.7,1.4-11.4,0.8C16.6,47.3,9.1,41.8,4,32.8c-0.8-1.4-0.9-2.8,0-4.1c0.7-1.1,1.4-2.2,2.1-3.2
	C6.4,24.9,6.8,24.5,7.2,24z"/>
</svg>
