<?xml version="1.0" encoding="utf-8"?>
<!-- Generator: Adobe Illustrator 24.3.0, SVG Export Plug-In . SVG Version: 6.00 Build 0)  -->
<svg
    version="1.1"
    id="eye-view"
    xmlns="http://www.w3.org/2000/svg"
    xmlns:xlink="http://www.w3.org/1999/xlink"
    viewBox="0 0 61.4 61.4"
    style="enable-background:new 0 0 61.4 61.4;"
    xml:space="preserve"
>
    <path
        fill="white"
		fill-rule="evenodd"
		clip-rule="evenodd"
        d="M30.8,49.3C18.7,48.6,9.7,43,3.8,32.3c-0.6-1.1-0.6-2.1,0-3.2c5.2-9.5,13-15.3,23.8-16.6
        c12.6-1.6,24.6,5.6,30.2,16.4c0.6,1.2,0.7,2.3,0,3.5c-5.2,9.4-13,15-23.7,16.5C33.1,49.1,31.9,49.2,30.8,49.3z M30.8,44.5
        c7.6,0,13.8-6.1,13.8-13.8c0-7.6-6.1-13.7-13.6-13.8c-7.6-0.1-13.8,6.1-13.8,13.7C17.1,38.3,23.2,44.5,30.8,44.5z"/>
    <path
        fill="white"
		fill-rule="evenodd"
		clip-rule="evenodd"
        d="M28.5,21.9c3.7-1.2,8,0.5,10.1,3.9c2.2,3.6,1.7,8.3-1.2,11.3c-3,3-7.6,3.6-11.2,1.5c-3.5-2.1-5.3-6.4-4.1-10.2
        c2.2,1.2,4.4,1.1,6.1-0.9C29.7,25.9,29.6,24,28.5,21.9z"/>
</svg>
