<?xml version="1.0" encoding="utf-8"?>
<!-- Generator: Adobe Illustrator 24.3.0, SVG Export Plug-In . SVG Version: 6.00 Build 0)  -->
<svg
    version="1.1"
    id="plus_white_svg"
    xmlns="http://www.w3.org/2000/svg"
    xmlns:xlink="http://www.w3.org/1999/xlink"
    viewBox="0 0 256 256" style="enable-background:new 0 0 256 256;"
    xml:space="preserve"
>
    <path
        fill="white"
        fill-rule="evenodd"
        clip-rule="evenodd"
        d="M145.6,247.8c-12.5,0-23.9,0-35.8,0c0-34,0-67.7,0-102.1c-34.3,0-68.2,0-102.4,0c0-12.2,0-23.8,0-36
        c33.9,0,67.8,0,102.1,0c0-34.4,0-68.1,0-102.3c12,0,23.6,0,35.8,0c0,33.8,0,67.6,0,102.1c34.5,0,68.4,0,102.5,0
        c0,12.2,0,23.8,0,35.8c-34,0-67.8,0-102.2,0C145.6,179.7,145.6,213.5,145.6,247.8z"/>
</svg>
