<svg width="53" height="30" viewBox="0 0 53 30" fill="none" xmlns="http://www.w3.org/2000/svg">
    <g clip-path="url(#4lok6lidoa)">
        <path fill-rule="evenodd" clip-rule="evenodd" d="M22.533 0a2.421 2.421 0 0 0-2.422 2.422v18.745a2.421 2.421 0 1 0 4.843 0V2.422A2.421 2.421 0 0 0 22.533 0zM30.45 7.11a2.421 2.421 0 0 0-2.42 2.422v11.635a2.422 2.422 0 0 0 4.842 0V9.532a2.421 2.421 0 0 0-2.421-2.422zM30.438 0a2.557 2.557 0 1 0 0 5.114 2.557 2.557 0 0 0 0-5.114z" fill="#000"/>
        <mask id="qrsy9f439b" style="mask-type:luminance" maskUnits="userSpaceOnUse" x="0" y="0" width="18" height="24">
            <path fill-rule="evenodd" clip-rule="evenodd" d="M0 0h17.703v23.588H0V0z" fill="#fff"/>
        </mask>
        <g mask="url(#qrsy9f439b)">
            <path fill-rule="evenodd" clip-rule="evenodd" d="M8.852 18.668a3.935 3.935 0 0 1-3.931-3.931 3.935 3.935 0 0 1 3.93-3.931 3.936 3.936 0 0 1 3.932 3.93 3.935 3.935 0 0 1-3.931 3.931zm0-12.783a8.805 8.805 0 0 0-4.008.96V2.423a2.422 2.422 0 0 0-4.844 0v11.895c0 .048.004.094.007.14-.003.094-.007.186-.007.28a8.852 8.852 0 0 0 8.852 8.851 8.852 8.852 0 1 0 0-17.703z" fill="#000"/>
        </g>
        <path fill-rule="evenodd" clip-rule="evenodd" d="M44.132 18.668a3.935 3.935 0 0 1-3.93-3.931 3.935 3.935 0 0 1 3.93-3.931 3.935 3.935 0 0 1 3.93 3.93 3.935 3.935 0 0 1-3.93 3.931zm0-12.783a8.852 8.852 0 0 0-8.852 8.852c0 .083.005.165.007.248-.002.042-.007.083-.007.125v12.468a2.422 2.422 0 0 0 4.843 0v-4.95a8.851 8.851 0 0 0 12.86-7.89 8.851 8.851 0 0 0-8.85-8.853z" fill="#000"/>
    </g>
    <defs>
        <clipPath id="4lok6lidoa">
            <path fill="#fff" d="M0 0h53v30H0z"/>
        </clipPath>
    </defs>
</svg>
